<svg xmlns="http://www.w3.org/2000/svg"  viewBox="0 0 64 64" width="96px" height="96px"><path fill="#f7a1c8" d="M5.559,22.837C0.505,37.441,8.247,53.378,22.852,58.432s30.542-2.687,35.596-17.292	S55.76,10.599,41.156,5.545S10.614,8.232,5.559,22.837z"/><path fill="#ed7899" d="M48.246,48.245c-8.978,8.975-23.532,8.973-32.507-0.005s-8.972-23.532,0.006-32.507	s23.532-8.973,32.507,0.005c1.807,1.808,3.301,3.905,4.418,6.205C56.953,30.757,55.177,41.317,48.246,48.245z"/><path fill="#8d6c9f" d="M58.064,19.323C51.069,4.926,33.728-1.074,19.33,5.92C12.416,9.279,7.12,15.247,4.607,22.511	C-0.637,37.637,7.374,54.15,22.501,59.393s31.639-2.768,36.883-17.894C61.928,34.229,61.453,26.241,58.064,19.323z M57.495,40.81	C52.614,54.89,37.243,62.348,23.162,57.468S1.623,37.217,6.503,23.136S26.755,1.597,40.836,6.478	c6.761,2.344,12.315,7.277,15.439,13.715C59.4,26.631,59.838,34.048,57.495,40.81z"/><path fill="#8d6c9f" d="M46.126,46.125c-0.39,0.39-0.39,1.023,0,1.413l1.413,1.413c0.39,0.39,1.023,0.39,1.413,0	c0.39-0.39,0.39-1.023,0-1.413l-1.413-1.413C47.149,45.735,46.517,45.735,46.126,46.125z"/><path fill="#8d6c9f" d="M50.423,41.941c-0.488-0.259-1.093-0.073-1.351,0.414c-0.246,0.464-0.091,1.04,0.355,1.317	l1.731,0.996c0.482,0.275,1.096,0.107,1.371-0.375s0.107-1.096-0.375-1.371L50.423,41.941z"/><path fill="#8d6c9f" d="M37.837,50.909c-0.533,0.142-0.851,0.69-0.708,1.223c0.001,0.002,0.001,0.004,0.002,0.007	l0.516,1.929c0.165,0.527,0.726,0.82,1.252,0.655c0.496-0.155,0.79-0.664,0.677-1.171l-0.516-1.929	c-0.139-0.534-0.685-0.854-1.219-0.715C37.839,50.909,37.838,50.909,37.837,50.909z"/><path fill="#8d6c9f" d="M52.14,37.129c-0.539-0.12-1.073,0.219-1.193,0.758c-0.113,0.507,0.181,1.016,0.677,1.171	l1.929,0.516c0.539,0.12,1.073-0.219,1.193-0.758c0.113-0.507-0.181-1.016-0.677-1.171L52.14,37.129z"/><path fill="#8d6c9f" d="M42.296,49.065c-0.475,0.278-0.636,0.888-0.36,1.364l0.989,1.724	c0.259,0.488,0.864,0.673,1.351,0.414c0.488-0.259,0.673-0.864,0.414-1.351c-0.011-0.02-0.022-0.04-0.034-0.059l-0.996-1.731	C43.382,48.95,42.772,48.789,42.296,49.065z"/><path fill="#8d6c9f" d="M31.59,10.29c0.547-0.076,0.928-0.581,0.852-1.127c-0.059-0.424-0.382-0.764-0.803-0.844	c-0.835-0.012-1.67,0.021-2.502,0.099c-0.552,0.018-0.984,0.481-0.965,1.032c0.018,0.552,0.481,0.984,1.032,0.965	c0.041-0.001,0.083-0.005,0.124-0.012C30.08,10.325,30.835,10.287,31.59,10.29z"/><path fill="#8d6c9f" d="M11.45,24.423c2.215-6.358,7.337-11.275,13.78-13.229c0.529-0.158,0.829-0.715,0.671-1.244	c-0.158-0.529-0.715-0.829-1.244-0.671c-7.037,2.141-12.631,7.509-15.059,14.452c-0.196,0.516,0.063,1.093,0.579,1.289	c0.516,0.196,1.093-0.063,1.289-0.579c0.007-0.017,0.013-0.035,0.018-0.053L11.45,24.423z"/><path fill="#fff8ee" d="M42.009,23.207c-0.083-0.317-0.218-0.591-0.408-0.81L30.334,33.781l1.455,1.431l8.461-8.582 C40.275,26.606,42.099,24.806,42.009,23.207z"/><polygon fill="#fff8ee" points="31.084,35.499 29.721,34.159 27.963,35.979"/><path fill="#fff8ee" d="M31.706,36.111L27.16,36.81l-8.332,8.624l3.497,3.438l0.175,0.003l-0.875-3.625 c0,0,4.82-2.189,11.267-7.974L31.706,36.111z"/><polygon fill="#fff8ee" points="18.342,45.937 15.625,48.75 21.309,48.853"/><path fill="#fff8ee" d="M40.743,27.126l-8.455,8.576l1.123,1.104c0.114-0.104,0.224-0.2,0.338-0.306 c6.093-5.65,7.374-8.06,8.022-10.623C41.285,26.59,40.786,27.085,40.743,27.126z"/><path fill="#fff8ee" d="M29.835,33.29l11.21-11.328c-0.875-0.462-2.224-0.403-3.795,0.163 c-3.125,1.125-6.875,5.25-6.875,5.25l-3.008,3.489L29.835,33.29z"/><polygon fill="#fff8ee" points="26.909,31.395 24.125,34.625 29.229,33.675"/><g><path fill="#fff8ee" d="M43.499,19.743c-0.066-0.068-0.102-0.161-0.098-0.256c0.003-0.095,0.045-0.185,0.116-0.248 l4.018-3.599c-0.724-0.551-1.617-0.89-2.597-0.89c-2.382,0-4.313,1.931-4.313,4.313s1.931,4.313,4.313,4.313 c0.614,0,1.195-0.132,1.724-0.364L43.499,19.743z"/><path fill="#fff8ee" d="M44.254,19.518l3.045,3.147c1.173-0.771,1.95-2.094,1.95-3.603c0-1.148-0.456-2.184-1.187-2.957 L44.254,19.518z M48.188,20.407c-0.061,0.123-0.185,0.193-0.313,0.193c-0.052,0-0.106-0.012-0.156-0.037 c-0.173-0.086-0.243-0.296-0.156-0.47c0.409-0.817,0.135-1.415,0.124-1.44c-0.082-0.173-0.01-0.382,0.162-0.466 c0.172-0.083,0.379-0.016,0.465,0.156C48.332,18.38,48.76,19.263,48.188,20.407z"/></g></svg>