<svg id="visual" viewBox="0 0 900 600" width="900" height="600" xmlns="http://www.w3.org/2000/svg" xmlns:xlink="http://www.w3.org/1999/xlink" version="1.1"><path d="M0 85L82 85L82 37L164 37L164 73L245 73L245 67L327 67L327 43L409 43L409 43L491 43L491 61L573 61L573 91L655 91L655 79L736 79L736 97L818 97L818 43L900 43L900 61L900 0L900 0L818 0L818 0L736 0L736 0L655 0L655 0L573 0L573 0L491 0L491 0L409 0L409 0L327 0L327 0L245 0L245 0L164 0L164 0L82 0L82 0L0 0Z" fill="#3f468a"></path><path d="M0 139L82 139L82 139L164 139L164 157L245 157L245 241L327 241L327 199L409 199L409 157L491 157L491 121L573 121L573 199L655 199L655 133L736 133L736 157L818 157L818 133L900 133L900 169L900 59L900 41L818 41L818 95L736 95L736 77L655 77L655 89L573 89L573 59L491 59L491 41L409 41L409 41L327 41L327 65L245 65L245 71L164 71L164 35L82 35L82 83L0 83Z" fill="#4f57a4"></path><path d="M0 421L82 421L82 313L164 313L164 301L245 301L245 469L327 469L327 319L409 319L409 259L491 259L491 295L573 295L573 295L655 295L655 289L736 289L736 307L818 307L818 403L900 403L900 361L900 167L900 131L818 131L818 155L736 155L736 131L655 131L655 197L573 197L573 119L491 119L491 155L409 155L409 197L327 197L327 239L245 239L245 155L164 155L164 137L82 137L82 137L0 137Z" fill="#5f68bf"></path><path d="M0 481L82 481L82 439L164 439L164 415L245 415L245 517L327 517L327 361L409 361L409 319L491 319L491 367L573 367L573 373L655 373L655 409L736 409L736 355L818 355L818 445L900 445L900 457L900 359L900 401L818 401L818 305L736 305L736 287L655 287L655 293L573 293L573 293L491 293L491 257L409 257L409 317L327 317L327 467L245 467L245 299L164 299L164 311L82 311L82 419L0 419Z" fill="#707adb"></path><path d="M0 601L82 601L82 601L164 601L164 601L245 601L245 601L327 601L327 601L409 601L409 601L491 601L491 601L573 601L573 601L655 601L655 601L736 601L736 601L818 601L818 601L900 601L900 601L900 455L900 443L818 443L818 353L736 353L736 407L655 407L655 371L573 371L573 365L491 365L491 317L409 317L409 359L327 359L327 515L245 515L245 413L164 413L164 437L82 437L82 479L0 479Z" fill="#818cf8"></path></svg>